<svg width="434" height="358" viewBox="0 0 434 358" fill="none" xmlns="http://www.w3.org/2000/svg">
<path opacity="0.1" d="M44.2904 41.7355C48.3276 17.6466 69.1778 0.00012207 93.6026 0.00012207H383.285C410.899 0.00012207 433.285 22.3859 433.285 50.0001V308C433.285 335.614 410.899 358 383.285 358H50.3624C19.4471 358 -4.05989 330.226 1.05018 299.736L44.2904 41.7355Z" fill="#68C9BA"/>
<path d="M401.014 94.0295C426.738 123.207 396.363 151.381 342.903 152.141C236.616 145.137 212.631 51.0074 220.664 29.9028C228.697 8.79815 252.615 8.2221 288.054 51.2151C323.493 94.2081 368.858 57.5572 401.014 94.0295Z" stroke="white" stroke-width="1.5"/>
<ellipse cx="296.634" cy="59.1502" rx="16.8481" ry="9.95569" transform="rotate(20.7184 296.634 59.1502)" stroke="white" stroke-width="1.5"/>
</svg>