<svg width="434" height="358" viewBox="0 0 434 358" fill="none" xmlns="http://www.w3.org/2000/svg">
<path opacity="0.1" d="M44.2894 41.7355C48.3267 17.6466 69.1768 0.00012207 93.6017 0.00012207H383.284C410.898 0.00012207 433.284 22.3859 433.284 50.0001V308C433.284 335.614 410.898 358 383.284 358H50.3614C19.4461 358 -4.06087 330.226 1.0492 299.736L44.2894 41.7355Z" fill="#2D9CDB"/>
<ellipse cx="373.674" cy="306.031" rx="30.9248" ry="18.2737" transform="rotate(20.7184 373.674 306.031)" stroke="white" stroke-width="1.5"/>
<path d="M99.7256 247.711C39.1914 259.917 24.5671 195.793 65.9576 121.69C159.954 -18.8782 308.406 22.8639 331.045 50.6597C353.685 78.4555 335.491 111.797 248.252 126.393C161.014 140.99 175.393 232.452 99.7256 247.711Z" stroke="white" stroke-width="1.5"/>
</svg>